<?xml version="1.0" standalone="no"?>
<!DOCTYPE svg PUBLIC "-//W3C//DTD SVG 20010904//EN"
 "http://www.w3.org/TR/2001/REC-SVG-20010904/DTD/svg10.dtd">
<svg version="1.0" xmlns="http://www.w3.org/2000/svg"
 width="78.000000pt" height="82.000000pt" viewBox="0 0 78.000000 82.000000"
 preserveAspectRatio="xMidYMid meet">

<g transform="translate(0.000000,82.000000) scale(0.100000,-0.100000)"
fill="#000000" stroke="none">
<path d="M360 605 c-15 -18 -10 -45 13 -59 34 -22 73 27 47 59 -16 19 -44 19
-60 0z"/>
<path d="M332 504 c-19 -13 -22 -24 -22 -80 0 -45 5 -70 15 -80 8 -9 15 -27
15 -42 0 -15 3 -44 6 -65 6 -35 8 -37 45 -37 42 0 38 -6 53 105 3 22 10 41 16
43 5 2 10 34 10 72 0 60 -3 71 -22 84 -12 9 -38 16 -58 16 -20 0 -46 -7 -58
-16z"/>
<path d="M0 181 l0 -141 138 0 c93 -1 150 -5 177 -15 22 -8 42 -15 44 -15 2 0
0 21 -4 47 -14 92 -49 132 -127 145 -93 15 -171 -12 -97 -34 13 -4 44 -13 68
-20 25 -7 46 -19 49 -25 5 -18 -99 -17 -143 1 l-35 15 0 74 c0 77 -5 88 -47
101 l-23 7 0 -140z"/>
<path d="M739 307 c-22 -11 -24 -19 -27 -90 l-3 -78 -34 -15 c-44 -18 -148
-19 -143 -1 3 6 24 18 49 25 24 7 55 16 68 20 68 20 6 47 -83 36 -92 -12 -127
-47 -141 -146 -4 -27 -6 -48 -4 -48 2 0 22 7 44 15 27 10 84 14 178 15 l137 0
0 134 c0 74 -4 137 -8 140 -4 3 -19 -1 -33 -7z"/>
</g>
</svg>
